<svg xmlns="http://www.w3.org/2000/svg" viewBox="0 0 512 512"><path d="M366.827 144.213c-9.387-9.387-26.453-9.387-35.84 0l-35.84 35.84c-5.12 4.267-7.68 11.093-7.68 17.92s2.56 12.8 7.68 17.92l60.587 60.587c5.12 5.12 11.093 7.68 17.92 7.68 5.973 0 12.8-2.56 17.92-7.68l35.84-35.84c5.12-4.267 7.68-11.093 7.68-17.92s-2.56-12.8-7.68-17.92l-60.587-60.587zm48.64 85.334l-35.84 35.84c-3.413 3.413-8.533 3.413-11.947 0L307.093 204.8c-1.707-1.707-2.56-3.413-2.56-5.973s.853-4.267 2.56-5.973l35.84-36.693c1.707-1.707 3.413-2.56 5.973-2.56s5.12.853 5.973 3.413l60.587 60.587c1.707 1.707 2.56 3.413 2.56 5.973s-.853 4.266-2.559 5.973z"/><path d="M349.76 186.88c-3.413-3.413-8.533-3.413-11.947 0s-3.413 8.533 0 11.947l35.84 35.84c1.707 1.707 3.413 2.56 5.973 2.56 1.707 0 4.267-.853 5.973-2.56 3.413-3.413 3.413-8.533 0-11.947l-35.839-35.84z"/><path d="M452.16 180.053l-115.2-115.2c-10.951-10.951-25.372-16.686-39.965-17.227C284.074 20.339 258.834 0 221.76 0c-34.831 0-59.213 17.954-72.752 42.755a102.636 102.636 0 0 0-4.048-.088c-56.32 0-102.4 46.08-102.4 102.4 0 37.702 20.652 70.812 51.2 88.585v82.082c0 2.56.853 4.267 2.56 5.973l11.093 11.093-11.093 11.093c-3.413 3.413-3.413 8.533 0 11.947l11.093 11.093-11.093 11.094c-3.413 3.413-3.413 8.533 0 11.947l11.093 11.093L96.32 412.16c-1.707 1.707-2.56 3.413-2.56 5.973s.853 4.267 2.56 5.973l11.093 11.093-11.093 11.094c-3.413 3.413-3.413 8.533 0 11.947l11.093 11.093-11.093 11.094c-3.413 3.413-3.413 8.533 0 11.947l17.067 17.067c1.707 1.707 3.413 2.56 5.973 2.56h34.133c.165 0 .333-.008.504-.021 4.131-.187 7.08-2.656 8.366-6.457l32.09-48.135c.853-1.707 1.707-3.413 1.707-5.12V233.651a103.615 103.615 0 0 0 34.536-32.778L331.84 301.227c11.093 11.093 26.453 17.067 41.813 17.067s30.72-5.12 42.667-17.92l35.84-35.84c23.04-23.041 23.04-61.441 0-84.481zm-136.533-69.12c0 9.387-7.68 17.067-17.067 17.067s-17.067-7.68-17.067-17.067c0-6.378 3.55-11.96 8.767-14.888.838 3.884 3.948 6.355 8.3 6.355s7.461-2.471 8.3-6.355c5.217 2.929 8.767 8.511 8.767 14.888zM221.76 17.067c27.537 0 46.257 13.809 57.03 32.632-9.689 2.618-18.814 7.659-26.31 15.155l-22.831 22.831c-14.393-21.133-36.468-36.662-62.121-42.49 11.091-16.481 28.943-28.128 54.232-28.128zm-85.1 78.978c.838 3.884 3.948 6.355 8.3 6.355s7.461-2.471 8.3-6.355c5.217 2.928 8.767 8.511 8.767 14.888 0 9.387-7.68 17.067-17.067 17.067s-17.067-7.68-17.067-17.067c0-6.377 3.55-11.959 8.767-14.888zM114.24 486.4l11.093-11.093c3.413-3.413 3.413-8.533 0-11.947l-11.093-11.093 11.093-11.093c1.707-1.707 2.56-3.413 2.56-5.973s-.853-4.267-2.56-5.973l-11.093-11.093 11.093-11.093c3.413-3.413 3.413-8.533 0-11.947L114.24 384l11.093-11.093c3.413-3.413 3.413-8.533 0-11.947l-11.093-11.093 11.093-11.093c1.707-1.707 2.56-3.413 2.56-5.973s-.853-4.267-2.56-5.973l-14.507-14.507v-70.746c1.261.45 2.531.881 3.814 1.282 9.832 3.268 19.741 4.61 30.319 4.61v247.467h-22.187l-8.532-8.534zm64.853-36.693l-16.213 24.32V245.884a101.212 101.212 0 0 0 16.213-4.31v208.133zm6.16-229.494a5.674 5.674 0 0 0-1.893.8 86.761 86.761 0 0 1-5.368 2.694 84.537 84.537 0 0 1-33.032 6.693c-2.591 0-5.151-.136-7.685-.365-10.658-1.08-21.065-3.912-30.715-9.021a7.566 7.566 0 0 0-2.294-1.013c-26.536-14.512-44.639-42.711-44.639-74.934 0-45.843 36.642-83.524 82.082-85.25a108.844 108.844 0 0 0-4.109 17.797c-15.265 3.39-26.773 17.072-26.773 33.32 0 18.773 15.36 34.133 34.133 34.133s34.133-15.36 34.133-34.133c0-15.363-10.289-28.434-24.314-32.678.976-5.884 2.516-11.697 4.632-17.264 40.007 6.902 70.715 41.888 70.873 83.751a84.086 84.086 0 0 1-.026 1.669c-.003.172-.009.343-.013.515-.42 12.639-3.763 24.535-9.339 35.687a8.413 8.413 0 0 0-.823 2.792 86.278 86.278 0 0 1-34.83 34.807zM439.36 253.44l-35.84 35.84c-17.067 16.213-44.373 16.213-60.587 0L239.036 185.382a101.46 101.46 0 0 0 5.738-17.482c.029-.123.053-.248.081-.371.15-.665.298-1.331.436-2.001.094-.456.178-.914.265-1.372.077-.406.157-.81.23-1.217.048-.27.09-.541.135-.812a102.039 102.039 0 0 0 1.439-17.061c0-.133-.005-.265-.005-.398.001-.152.005-.303.005-.456 0-14.507-2.56-28.16-8.533-40.96l25.6-25.6c6.177-5.868 13.698-9.601 21.547-11.221a91.897 91.897 0 0 1 2.767 11.823c-14.025 4.244-24.314 17.315-24.314 32.678 0 18.773 15.36 34.133 34.133 34.133 18.773 0 34.133-15.36 34.133-34.133 0-16.247-11.508-29.93-26.773-33.32-.55-3.799-1.294-7.56-2.231-11.26 7.9 1.578 15.363 5.339 21.324 11.3L439.36 193.707c8.533 7.68 12.8 18.773 12.8 29.867s-5.12 22.186-12.8 29.866z"/></svg>