<svg xmlns="http://www.w3.org/2000/svg" viewBox="0 0 459.785 459.785"><path d="M173.322 114.954c-.019.358-.019.716 0 1.074.297 5.474 4.975 9.672 10.449 9.375h175.02c.358.019.716.019 1.074 0 5.474-.297 9.672-4.975 9.375-10.449V10.464c.019-.358.019-.716 0-1.074-.297-5.474-4.975-9.672-10.449-9.375h-175.02a10.125 10.125 0 0 0-1.074 0c-5.474.297-9.672 4.975-9.375 10.449v104.49zm20.898-94.041h154.122v83.592H194.22V20.913zM421.486 282.137v-104.49c.019-.358.019-.716 0-1.074-.297-5.474-4.975-9.672-10.449-9.375H183.771a10.125 10.125 0 0 0-1.074 0c-5.474.297-9.672 4.975-9.375 10.449v104.49c-.019.358-.019.716 0 1.074.297 5.474 4.975 9.672 10.449 9.375h227.265c.358.019.716.019 1.074 0 5.475-.296 9.672-4.975 9.376-10.449zm-20.898-10.449H194.22v-83.592h206.367v83.592zM369.241 344.831c.019-.358.019-.716 0-1.074-.297-5.474-4.975-9.672-10.449-9.375h-175.02a10.125 10.125 0 0 0-1.074 0c-5.474.297-9.672 4.975-9.375 10.449v104.49c-.019.358-.019.716 0 1.074.297 5.474 4.975 9.672 10.449 9.375h175.02c.358.019.716.019 1.074 0 5.474-.297 9.672-4.975 9.375-10.449v-104.49zm-20.898 94.041H194.22V355.28h154.122v83.592zM129.384 46.565c-5.482-24.497-29.785-39.912-54.282-34.429C54.356 16.778 39.6 35.181 39.575 56.439c-.533 21.12 13.888 39.692 34.482 44.408v84.637c-24.526 5.352-40.07 29.572-34.718 54.098A45.453 45.453 0 0 0 74.057 274.3v84.637c-20.594 4.716-35.015 23.288-34.482 44.408.029 25.103 20.402 45.43 45.505 45.401 25.103-.029 45.43-20.402 45.401-45.505-.024-21.259-14.781-39.661-35.526-44.304V274.3c20.688-4.684 35.281-23.199 35.004-44.408.277-21.21-14.316-39.724-35.004-44.408v-84.637c24.497-5.482 39.912-29.785 34.429-54.282zm-19.278 356.78c-.284 13.645-11.429 24.558-25.078 24.555-13.561 0-24.555-10.994-24.555-24.555s10.994-24.555 24.555-24.555c13.649-.003 24.794 10.91 25.078 24.555zm-.507-173.468c.009 13.561-10.978 24.562-24.539 24.571h-.031c-13.357-.284-24.036-11.195-24.033-24.555-.003-13.36 10.676-24.271 24.033-24.555 13.561-.009 24.562 10.977 24.57 24.539zM85.028 80.994c-13.357-.284-24.035-11.195-24.032-24.555-.003-13.36 10.676-24.271 24.033-24.555 13.648-.003 24.793 10.91 25.078 24.555-.285 13.646-11.43 24.558-25.079 24.555z"/><path d="M215.118 57.484H275.2c5.771 0 10.449-4.678 10.449-10.449s-4.678-10.449-10.449-10.449h-60.082c-5.771 0-10.449 4.678-10.449 10.449s4.678 10.449 10.449 10.449zM327.445 67.933H215.118c-5.771 0-10.449 4.678-10.449 10.449s4.678 10.449 10.449 10.449h112.327c5.771 0 10.449-4.678 10.449-10.449s-4.678-10.449-10.449-10.449zM215.118 224.668H275.2c5.771 0 10.449-4.678 10.449-10.449s-4.678-10.449-10.449-10.449h-60.082c-5.771 0-10.449 4.678-10.449 10.449s4.678 10.449 10.449 10.449zM215.118 256.015h112.327c5.771 0 10.449-4.678 10.449-10.449s-4.678-10.449-10.449-10.449H215.118c-5.771 0-10.449 4.678-10.449 10.449s4.678 10.449 10.449 10.449zM215.118 391.852H275.2c5.771 0 10.449-4.678 10.449-10.449s-4.678-10.449-10.449-10.449h-60.082c-5.771 0-10.449 4.678-10.449 10.449s4.678 10.449 10.449 10.449zM215.118 423.198h112.327c5.771 0 10.449-4.678 10.449-10.449s-4.678-10.449-10.449-10.449H215.118c-5.771 0-10.449 4.678-10.449 10.449s4.678 10.449 10.449 10.449z"/></svg>